Coordinates
version=1
nRows=10
nColumns=23
inDegrees=yes

Units are S.I. units (second, meters, Newtons, ...)
If the header above contains a line with 'inDegrees', this indicates whether rotational values are in degrees (yes) or radians (no).

endheader
time	pelvis_tilt	pelvis_list	pelvis_rotation	pelvis_tx	pelvis_ty	pelvis_tz	hip_flexion_r	hip_adduction_r	hip_rotation_r	knee_angle_r	knee_angle_r_beta	ankle_angle_r	subtalar_angle_r	mtp_angle_r	hip_flexion_l	hip_adduction_l	hip_rotation_l	knee_angle_l	knee_angle_l_beta	ankle_angle_l	subtalar_angle_l	mtp_angle_l
      7.50000000	     -2.34363584	     -3.09873407	     11.03270015	      2.15970001	      0.89475161	      1.01618954	     40.03500845	     -3.80949212	    -12.45721924	     73.39892383	      1.28105289	      2.08636362	    -11.86522075	      0.00000000	    -18.20127933	     -3.26202074	      1.22663186	     18.56428254	      0.32400785	     -2.70677604	     -1.47948226	      0.00000000
      7.50666667	     -3.06238734	     -3.33136161	     10.45248488	      2.16187435	      0.89778482	      1.01640155	     40.59142236	     -3.16611412	    -12.16141909	     68.51588218	      1.19582773	      2.85815011	    -10.94683471	      0.00000000	    -19.17419286	     -3.58436144	     -0.41062700	     17.24908745	      0.30105337	     -6.32369759	     -1.00739857	      0.00000000
      7.51333333	     -3.66082580	     -3.52099051	      9.91646753	      2.16408919	      0.90072747	      1.01656788	     40.81415597	     -2.52306436	    -11.88286341	     63.42714887	      1.10701258	      3.64377041	    -10.02573040	      0.00000000	    -20.11653769	     -3.86597554	     -2.00922285	     16.23057589	      0.28327699	     -9.62045479	     -0.70502413	      0.00000000
      7.52000000	     -4.40825366	     -3.50871351	      9.29983425	      2.16613165	      0.90310153	      1.01685887	     41.09505024	     -1.97791105	    -11.35475437	     58.28880794	      1.01733162	      4.49030989	     -9.11199870	      0.00000000	    -20.72653961	     -3.89410967	     -3.72980661	     15.62772883	      0.27275532	    -12.55639768	     -0.36329162	      0.00000000
      7.52666667	     -5.57660998	     -3.26083713	      8.66212150	      2.16792032	      0.90448899	      1.01720343	     41.76176487	     -1.72139860	    -10.70481982	     53.23073466	      0.92905158	      5.45279894	     -7.89894656	      0.00000000	    -20.61377203	     -3.63207075	     -5.37635882	     15.64265879	      0.27301590	    -14.95824421	     -0.34128536	      0.00000000
      7.53333333	     -5.81763454	     -3.30040888	      8.11868030	      2.16983496	      0.90685704	      1.01746969	     41.12420062	     -0.98523795	    -10.19892191	     47.71721583	      0.83282253	      6.23212164	     -6.95714773	      0.00000000	    -21.44112062	     -3.80758404	     -7.11246449	     15.70576015	      0.27411723	    -16.93022973	     -0.30030057	      0.00000000
      7.54000000	     -6.83277775	     -2.92030572	      7.48565292	      2.17126441	      0.90758460	      1.01799202	     41.40438170	     -0.74101593	     -9.40395980	     42.62492557	      0.74394529	      7.24630588	     -5.45668395	      0.00000000	    -21.16560233	     -3.45408974	     -8.58281799	     16.46117279	      0.28730166	    -18.39993525	     -0.78535210	      0.00000000
      7.54666667	     -7.09765924	     -2.91195970	      7.06279516	      2.17273991	      0.90904070	      1.01828071	     40.56290713	     -0.10967241	     -8.88097509	     37.13300455	      0.64809319	      7.98791791	     -4.24718480	      0.00000000	    -21.50905931	     -3.66123539	    -10.00597129	     17.53070832	      0.30596858	    -19.28087617	     -1.13301134	      0.00000000
      7.55333333	     -7.58667615	     -2.71593488	      6.58779945	      2.17388814	      0.90958474	      1.01878940	     39.99855354	      0.34730433	     -8.13096042	     31.99415172	      0.55840329	      8.80572268	     -2.77817184	      0.00000000	    -21.44303956	     -3.63548942	    -11.07371331	     19.03955277	      0.33230288	    -19.77905404	     -1.90459153	      0.00000000
      7.56000000	     -7.96290646	     -2.55586425	      6.17464541	      2.17483454	      0.90977280	      1.01930531	     39.24791925	      0.81477936	     -7.35032932	     27.04134305	      0.47196047	      9.53478861	     -1.36603746	      0.00000000	    -21.31017446	     -3.67557268	    -11.76927254	     20.94805650	      0.36561256	    -19.89221648	     -2.92135169	      0.00000000
